<svg width="68" height="69" viewBox="0 0 68 69" fill="none" xmlns="http://www.w3.org/2000/svg">
<mask id="mask0_262_97" style="mask-type:luminance" maskUnits="userSpaceOnUse" x="0" y="0" width="68" height="69">
<path fill-rule="evenodd" clip-rule="evenodd" d="M0.31543 0.373047H67.4756V68.8281H0.31543V0.373047Z" fill="white"/>
</mask>
<g mask="url(#mask0_262_97)">
<path d="M64.6836 34.6007C64.6836 51.9754 50.8724 66.0113 33.8955 66.0113C16.9186 66.0113 3.10742 51.9754 3.10742 34.6007C3.10742 17.2259 16.9186 3.19006 33.8955 3.19006C50.8724 3.19006 64.6836 17.2259 64.6836 34.6007Z" stroke="#FF00B2" stroke-width="3" stroke-linecap="round"/>
<path d="M58.2098 34.6007C58.2098 48.331 47.2971 59.4125 33.8957 59.4125C20.4942 59.4125 9.58154 48.331 9.58154 34.6007C9.58154 20.8703 20.4942 9.78882 33.8957 9.78882C47.2971 9.78882 58.2098 20.8703 58.2098 34.6007Z" stroke="#FF00B2" stroke-width="3" stroke-linecap="round"/>
<path d="M51.733 34.6005C51.733 44.6848 43.7203 52.8109 33.8954 52.8109C24.0711 52.8109 16.0583 44.6848 16.0583 34.6005C16.0583 24.5161 24.0711 16.39 33.8954 16.39C43.7203 16.39 51.733 24.5162 51.733 34.6005Z" stroke="#FF00B2" stroke-width="3" stroke-linecap="round"/>
<path d="M45.0121 34.601C45.0121 40.9021 40.0082 45.9609 33.8955 45.9609C27.7822 45.9609 22.7783 40.902 22.7783 34.601C22.7783 28.3 27.7822 23.2411 33.8955 23.2411C40.0082 23.2411 45.0121 28.2999 45.0121 34.601Z" stroke="#FF00B2" stroke-width="3" stroke-linecap="round"/>
<path d="M38.2845 34.6006C38.2845 37.1144 36.2926 39.1031 33.8955 39.1031C31.4985 39.1031 29.5066 37.1144 29.5066 34.6006C29.5066 32.0868 31.4985 30.0981 33.8955 30.0981C36.2926 30.0981 38.2845 32.0868 38.2845 34.6006Z" stroke="#FF00B2" stroke-width="3" stroke-linecap="round"/>
</g>
</svg>
